HIERARCHY
ROOT pelvis
{
  OFFSET 0 100 0
  CHANNELS 6 Xposition Yposition Zposition Zrotation Xrotation Yrotation
  JOINT pelvis_right_femur
  {
    OFFSET -10.78128 -3.44521 -0.5502486
    CHANNELS 3 Zrotation Xrotation Yrotation
    JOINT right_femur_tibia
    {
      OFFSET -0.8047443 -44.0398 -0.1307829
      CHANNELS 3 Zrotation Xrotation Yrotation
      JOINT right_tibia_foot
      {
        OFFSET 3.006224 -47.83518 -5
        CHANNELS 3 Zrotation Xrotation Yrotation
        End Site
        {
          OFFSET 0 -5 15
        }
      }
    }
  }
  JOINT pelvis_left_femur
  {
    OFFSET 10.78128 -3.44521 -0.5502486
    CHANNELS 3 Zrotation Xrotation Yrotation
    JOINT left_femur_tibia
    {
      OFFSET 0.8047443 -44.0398 -0.1307829
      CHANNELS 3 Zrotation Xrotation Yrotation
      JOINT left_tibia_foot
      {
        OFFSET -4.370144 -48.10324 -4.275266
        CHANNELS 3 Zrotation Xrotation Yrotation
        End Site
        {
          OFFSET 0 -5 15
        }
      }
    }
  }
  JOINT pelvis_spine1
  {
    OFFSET 0 6.468898 -3.129235
    CHANNELS 3 Zrotation Xrotation Yrotation
    JOINT spine1
    {
      OFFSET 0 23.15396 4.99043
      CHANNELS 3 Zrotation Xrotation Yrotation
      JOINT spine2
      {
        OFFSET 0 20.79997 -5.064912
        CHANNELS 3 Zrotation Xrotation Yrotation
        JOINT neck
        {
          OFFSET 0 14.38658 9.616178
          CHANNELS 3 Zrotation Xrotation Yrotation
          End Site
          {
            OFFSET 0 20 0
          }
        }
      }
      JOINT right_manubrium
      {
        OFFSET -5.722621 16.35077 3.967754
        CHANNELS 3 Zrotation Xrotation Yrotation
        JOINT right_clavicle
        {
          OFFSET -13.16364 1.694482 -4.693211
          CHANNELS 3 Zrotation Xrotation Yrotation
          JOINT right_humerus
          {
            OFFSET -28.5034 -0.3100689 -2.792744
            CHANNELS 3 Zrotation Xrotation Yrotation
            JOINT right_radius
            {
              OFFSET -25.15693 0.02248979 -1.271978
              CHANNELS 3 Zrotation Xrotation Yrotation
              End Site
              {
                OFFSET -15 0 0
              }
            }
          }
        }
      }
      JOINT left_manubrium
      {
        OFFSET 5.722621 16.35077 3.967754
        CHANNELS 3 Zrotation Xrotation Yrotation
        JOINT left_clavicle
        {
          OFFSET 13.16364 1.694482 -4.693211
          CHANNELS 3 Zrotation Xrotation Yrotation
          JOINT left_humerus
          {
            OFFSET 29.39168 -1.063119 -2.237045
            CHANNELS 3 Zrotation Xrotation Yrotation
            JOINT left_radius
            {
              OFFSET 24.59957 -0.9528479 0.9047498
              CHANNELS 3 Zrotation Xrotation Yrotation
              End Site
              {
                OFFSET 15 -0 -0
              }
            }
          }
        }
      }
    }
  }
}
MOTION
Frames: 19
Frame Time: 0.0416666666667
-1425.812 81.44244 1213.043 -9.659879 3.453561 -106.3911 3.96462 19.95106 -0.1884494 -0 17.84772 -0 -12.1437 -13.50999 -1.918145 1.412966 -15.70324 -6.975774 -0 9.01511 -0 -0.2264314 -2.567382 17.90025 -0.9781747 -1.778813 6.223322 -4.064525 13.76352 -2.212709 0.5087196 20.76048 7.060545 8.805299 -12.47056 2.347726 5.920667 -22.53455 11.82215 82.12062 31.75139 -7.85546 -0 0 22.88755 -28.56504 8.244687 14.85097 6.810787 -23.9056 -8.651175 -91.84291 5.105494 27.53638 0 0 -1.808389 12.41469 11.36045 -0.6556755
-1432.02 81.02859 1212.504 -10.74301 2.844875 -106.9026 1.567673 22.85364 -1.296799 -0 21.92511 -0 -13.50177 -10.13633 -0.6344268 -1.30747 -13.61816 -10.78121 -0 9.504291 -0 -2.763497 -4.691683 18.96855 -0.9307387 -1.967738 6.582031 -3.897105 14.00829 -2.494995 0.2748526 20.4376 6.977426 8.916175 -12.17742 1.859778 5.985043 -22.88949 11.92927 82.26544 31.69241 -8.470471 -0 0 23.37377 -28.12108 8.311602 14.30373 6.738032 -24.61832 -8.95158 -91.92142 4.488104 28.29104 0 0 -2.573359 12.23489 10.77699 -0.1529321
-1438.277 81.01852 1211.901 -11.88883 2.12227 -107.0871 -0.6520539 24.33054 -2.155814 -0 27.75812 -0 -15.11067 -4.48143 1.10888 -3.74554 -10.94049 -14.18702 -0 11.15983 -0 -4.813985 -7.000104 19.74162 -0.8922384 -2.106956 6.869158 -3.690983 14.19505 -2.863937 0.04860025 20.11709 6.878902 9.014681 -11.90941 1.3692 6.016037 -23.02331 11.9753 82.54818 31.84052 -9.34776 -0 0 23.56693 -27.55772 8.453462 13.53027 6.814116 -25.41501 -9.18033 -91.70608 3.854977 28.41986 0 0 -4.087191 12.21621 10.18371 0.0486912
-1444.406 81.44508 1211.229 -12.8539 1.570638 -106.8869 -2.160298 23.60367 -2.786316 -0 34.94331 -0 -16.83871 2.05799 2.964657 -5.397552 -7.645331 -16.56643 -0 12.95812 -0 -6.025928 -9.039358 20.13344 -0.8708952 -2.189082 7.065279 -3.450394 14.31785 -3.302306 -0.1605438 19.82616 6.76836 9.083597 -11.7082 0.909774 5.987886 -22.94239 11.95915 82.97219 32.13268 -10.43784 -0 0 23.46821 -26.91068 8.655091 12.57875 7.038508 -26.24147 -9.32781 -91.23265 3.260581 27.92408 0 0 -6.255705 12.3576 9.626573 -0.08907053
-1450.207 82.23618 1210.509 -13.45154 1.370511 -106.3568 -2.704404 20.41141 -3.327079 -0 42.17257 -0 -18.50266 7.710982 4.504583 -6.115472 -3.894256 -17.74743 -0 14.11362 -0 -6.338642 -10.65917 20.16972 -0.8712345 -2.2147 7.164014 -3.184907 14.37817 -3.791024 -0.3469542 19.57801 6.649759 9.114348 -11.59492 0.50184 5.892855 -22.67138 11.88679 83.52433 32.51632 -11.68301 -0 0 23.11324 -26.21902 8.902257 11.50637 7.400462 -27.05552 -9.390905 -90.55045 2.727421 26.85833 0 0 -8.955413 12.64192 9.130353 -0.5604813
-1455.521 83.20854 1209.78 -13.58215 1.528565 -105.6426 -2.404711 15.08673 -3.877619 -0 47.63876 -0 -19.80254 11.05517 5.344983 -6.078501 0.0151964 -17.96229 -0 14.18041 -0 -5.940672 -12.01879 19.91194 -0.8938922 -2.189863 7.169326 -2.909963 14.38147 -4.307494 -0.5066922 19.37473 6.527867 9.107238 -11.56987 0.1551049 5.74078 -22.24422 11.76819 84.17558 32.95794 -13.01866 -0 0 22.55793 -25.52379 9.182517 10.37675 7.880974 -27.82472 -9.370383 -89.7148 2.254587 25.3152 0 0 -12.04205 13.03888 8.702021 -1.317119
-1460.283 84.11468 1209.073 -13.21521 1.890656 -104.9221 -1.628674 8.374545 -4.467394 -0 49.7643 -0 -20.45218 11.53301 5.309554 -5.635548 3.747791 -17.61997 -0 13.13358 -0 -5.141148 -13.42376 19.41965 -0.9363474 -2.123378 7.090217 -2.647369 14.33549 -4.823686 -0.63502 19.21179 6.409039 9.070397 -11.61827 -0.1257936 5.555934 -21.69852 11.61494 84.88289 33.44236 -14.37159 -0 0 21.86741 -24.87181 9.48498 9.262884 8.454239 -28.5203 -9.27052 -88.78185 1.830262 23.41141 0 0 -15.35132 13.51105 8.338878 -2.279933
-1464.537 84.72272 1208.397 -12.35974 2.228232 -104.3403 -0.7684334 1.129093 -5.087269 -0 47.86699 -0 -20.34176 9.540321 4.541663 -5.136375 7.032511 -17.08379 -0 11.34565 -0 -4.23167 -15.1179 18.75857 -0.9937099 -2.024641 6.93604 -2.42411 14.24988 -5.306342 -0.7250213 19.08184 6.301681 9.017935 -11.71785 -0.3365304 5.372349 -21.0726 11.43902 85.593 33.9674 -15.661 -0 0 21.10759 -24.31756 9.799818 8.248024 9.088199 -29.11286 -9.100442 -87.80426 1.442403 21.2766 0 0 -18.70064 14.02103 8.036251 -3.355843
-1468.417 84.88796 1207.738 -11.05422 2.34839 -103.9666 -0.0779053 -5.947951 -5.682693 -0 42.41459 -0 -19.52644 6.1331 3.411788 -4.823432 9.72933 -16.56478 -0 9.41793 -0 -3.383788 -17.14134 18.02219 -1.059287 -1.902004 6.71421 -2.268404 14.13538 -5.720235 -0.767934 18.97762 6.215882 8.966846 -11.84593 -0.4704579 5.227118 -20.40381 11.25204 86.24893 34.53712 -16.80457 -0 0 20.33765 -23.9186 10.11723 7.419016 9.745189 -29.57213 -8.874696 -86.82776 1.085659 19.04311 0 0 -21.89773 14.53753 7.792382 -4.45429
-1472.107 84.58315 1207.064 -9.373018 2.169935 -103.7863 0.3857109 -12.42613 -6.135134 -0 34.77057 -0 -18.12638 2.552349 2.304423 -4.794709 11.8326 -16.12646 -0 7.936523 -0 -2.600092 -19.3067 17.33914 -1.125155 -1.761614 6.430601 -2.203481 14.00165 -6.033705 -0.7550385 18.89448 6.162133 8.932543 -11.98525 -0.5180771 5.151834 -19.72687 11.06481 86.79866 35.15519 -17.72815 -0 0 19.60303 -23.72438 10.42555 6.852193 10.38389 -29.86987 -8.611019 -85.88948 0.7647381 16.83619 0 0 -24.75564 15.03873 7.610512 -5.500505
-1475.795 83.88266 1206.348 -7.431774 1.738149 -103.7226 0.7296998 -18.11277 -6.295287 -0 26.62035 -0 -16.31588 -0.2160517 1.469123 -5.021098 13.42395 -15.73969 -0 7.287284 -0 -1.738511 -21.27909 16.84877 -1.183091 -1.606999 6.091926 -2.240993 13.85434 -6.224482 -0.6804288 18.83239 6.149438 8.924143 -12.12717 -0.4684382 5.164288 -19.07219 10.88694 87.20339 35.81889 -18.37565 -0 0 18.93099 -23.76214 10.70947 6.596633 10.96295 -29.984 -8.325881 -85.01903 0.4951149 14.76566 0 0 -27.1102 15.51166 7.499068 -6.442822
-1479.643 82.9212 1205.56 -5.383283 1.18872 -103.6746 1.135073 -22.9317 -6.063182 -0 19.39976 -0 -14.3731 -1.693809 0.9829798 -5.394171 14.61283 -15.3358 -0 7.624556 -0 -0.6225525 -22.69931 16.63751 -1.22602 -1.439881 5.708751 -2.376692 13.69368 -6.283715 -0.5437212 18.79666 6.183294 8.941632 -12.27145 -0.3124986 5.263744 -18.46465 10.7265 87.44207 36.51398 -18.7157 -0 0 18.33081 -24.026 10.95055 6.661644 11.4456 -29.90287 -8.030808 -84.24189 0.3013787 12.92098 0 0 -28.83567 15.94851 7.470525 -7.252684
-1483.773 81.85454 1204.675 -3.40533 0.689973 -103.5574 1.758498 -26.80302 -5.446819 -0 13.97502 -0 -12.65853 -1.929716 0.7928789 -5.777847 15.48749 -14.84041 -0 8.982094 -0 0.8019437 -23.28533 16.66051 -1.249619 -1.262187 5.297589 -2.590575 13.51612 -6.216772 -0.3516754 18.79682 6.263955 8.976567 -12.42215 -0.04797243 5.432149 -17.92315 10.58981 87.51126 37.21192 -18.74364 -0 0 17.79938 -24.47466 11.13096 7.014188 11.80407 -29.62901 -7.732315 -83.58269 0.2127682 11.36973 0 0 -29.85612 16.3418 7.538866 -7.918662
-1488.263 80.83782 1203.67 -1.681838 0.3896234 -103.3327 2.674921 -29.58874 -4.544049 -0 10.6326 -0 -11.49105 -1.337371 0.7867788 -6.044825 16.07501 -14.19329 -0 11.42562 -0 2.365607 -22.87985 16.71427 -1.253381 -1.078287 4.880931 -2.852027 13.31872 -6.040492 -0.1179169 18.8436 6.385447 9.015975 -12.58172 0.3161124 5.640664 -17.4614 10.48114 87.42116 37.87116 -18.47904 -0 0 17.33002 -25.04066 11.23869 7.588157 12.02249 -29.18112 -7.435389 -83.06649 0.2559734 10.15891 0 0 -30.15002 16.6811 7.715636 -8.438001
-1493.149 80.01907 1202.531 -0.3790359 0.3788365 -103.0232 3.873188 -31.11395 -3.463674 -0 9.260927 -0 -11.01229 -0.4575359 0.8380633 -6.095158 16.30673 -13.36359 -0 15.13485 -0 3.72198 -21.44892 16.51491 -1.240517 -0.8961324 4.485014 -3.128179 13.10373 -5.777884 0.1393301 18.9453 6.535825 9.047248 -12.74631 0.7576719 5.858287 -17.08945 10.40244 87.19065 38.4432 -17.95923 -0 0 16.92102 -25.64847 11.27059 8.302364 12.09766 -28.59251 -7.147585 -82.71711 0.447224 9.318162 0 0 -29.74575 16.9525 8.005511 -8.809325
-1498.425 79.53534 1201.262 0.3772064 0.6735715 -102.7079 5.273289 -31.22799 -2.26171 -0 9.541779 -0 -11.14059 0.2470728 0.8165352 -5.868161 16.00179 -12.36102 -0 20.35888 -0 4.532071 -19.05818 15.85652 -1.216691 -0.7266495 4.136249 -3.392029 12.88053 -5.452394 0.4006166 19.1049 6.699015 9.061692 -12.90492 1.244038 6.058816 -16.81593 10.35364 86.84305 38.88125 -17.23088 -0 0 16.58099 -26.23414 11.23115 9.08022 12.03738 -27.90587 -6.880711 -82.55415 0.7868366 8.864123 0 0 -28.70865 17.14018 8.402945 -9.028509
-1504.041 79.49965 1199.889 0.5157097 1.207851 -102.5016 6.723942 -29.86375 -0.9614136 -0 11.02814 -0 -11.64516 0.5040047 0.6089625 -5.35923 14.89182 -11.23478 -0 27.25565 -0 4.673322 -15.86893 14.74909 -1.188222 -0.5818133 3.857584 -3.627148 12.66431 -5.083956 0.6483866 19.31876 6.857937 9.055721 -13.04244 1.737808 6.224176 -16.64971 10.33335 86.40332 39.14784 -16.34215 -0 0 16.32945 -26.75815 11.12827 9.863852 11.85735 -27.16624 -6.649444 -82.59021 1.25836 8.804296 0 0 -27.12497 17.22883 8.891169 -9.088206
-1509.894 79.97511 1198.46 0.02537286 1.838665 -102.5218 7.988687 -27.0734 0.3584248 -0 13.11351 -0 -12.29092 0.249751 0.1685397 -4.636686 12.69934 -10.05472 -0 35.66312 -0 4.336742 -12.18301 13.43928 -1.160532 -0.4723236 3.665658 -3.827794 12.47258 -4.687841 0.8689075 19.57712 6.997934 9.030124 -13.14499 2.203792 6.344343 -16.60021 10.33985 85.89678 39.21882 -15.33784 -0 0 16.19272 -27.20774 10.96922 10.61904 11.57739 -26.41479 -6.468443 -82.82929 1.832284 9.138525 0 0 -25.08878 17.20643 9.443838 -8.980594
-1515.829 80.94226 1197.032 -1.041131 2.37415 -102.8455 8.78613 -23.0353 1.511378 -0 15.01852 -0 -12.95165 -0.4096046 -0.4448014 -3.829393 9.254954 -8.88305 -0 44.86735 -0 3.938063 -8.489482 12.29415 -1.137283 -0.4056657 3.569071 -3.99547 12.32134 -4.275801 1.052891 19.86607 7.109346 8.988349 -13.20502 2.614786 6.415354 -16.67589 10.37179 85.34895 39.08306 -14.2584 -0 0 16.19632 -27.58982 10.75905 11.33193 11.21793 -25.68501 -6.349952 -83.26653 2.472657 9.857358 0 0 -22.69492 17.06685 10.02877 -8.702027
